# AST/ASF file generated using VICON BodyLanguage
# -----------------------------------------------
:version 1.10
:name VICON
:units
  mass 1.0
  length 0.45
  angle deg
:documentation
   .ast/.asf automatically generated from VICON data using
   VICON BodyBuilder and BodyLanguage model FoxedUp or BRILLIANT.MOD
:root
   order TX TY TZ RX RY RZ
   axis XYZ
   position 0 0 0  
   orientation 0 0 0 
:bonedata
  begin
     id 1 
     name lhipjoint
     direction 0.558404 -0.748506 0.357664 
     length 2.4234 
     axis 0 0 0  XYZ
  end
  begin
     id 2 
     name lfemur
     direction 0.34202 -0.939693 0  
     length 7.14567  
     axis 0 0 20  XYZ
    dof rx ry rz
    limits (-160.0 20.0)
           (-70.0 70.0)
           (-60.0 70.0)
  end
  begin
     id 3 
     name ltibia
     direction 0.34202 -0.939693 0   
     length 8.13956   
     axis 0 0 20   XYZ
    dof rx
    limits (-10.0 170.0)
  end
  begin
     id 4 
     name lfoot
     direction 0.0791314 -0.217412 0.972867   
     length 2.00134   
     axis -90 7.62852e-016 20   XYZ
    dof rx rz
    limits (-45.0 90.0)
           (-70.0 20.0)
  end
  begin
     id 5 
     name ltoes
     direction 1.53547e-011 -4.21922e-011 1   
     length 1.00735   
     axis -90 7.62852e-016 20   XYZ
    dof rx
    limits (-90.0 20.0)
  end
  begin
     id 6 
     name rhipjoint
     direction -0.496392 -0.78327 0.374276   
     length 2.31584  
     axis 0 0 0  XYZ 
  end
  begin
     id 7 
     name rfemur
     direction -0.34202 -0.939693 0   
     length 7.47417   
     axis 0 0 -20   XYZ
    dof rx ry rz
    limits (-160.0 20.0)
           (-70.0 70.0)
           (-70.0 60.0)
  end
  begin
     id 8 
     name rtibia
     direction -0.34202 -0.939693 0   
     length 7.69071   
     axis 0 0 -20   XYZ
    dof rx
    limits (-10.0 170.0)
 end
 begin
     id 9 
     name rfoot
     direction -0.103069 -0.28318 0.953512   
     length 2.16135  
     axis -90 -7.62852e-016 -20   XYZ
    dof rx rz
    limits (-45.0 90.0)
           (-20.0 70.0)
  end
  begin
     id 10 
     name rtoes
     direction -1.53581e-011 -4.21904e-011 1   
     length 1.07867   
     axis -90 -7.62852e-016 -20   XYZ
    dof rx
    limits (-90.0 20.0)
  end
  begin
     id 11 
     name lowerback
     direction -0.0258961 0.994776 -0.0987407   
     length 2.19412   
     axis 0 0 0   XYZ
    dof rx ry rz
    limits (-20.0 45.0)
           (-30.0 30.0)
           (-30.0 30.0)
  end
  begin
     id 12 
     name upperback
     direction 0.0402454 0.999185 0.00320666   
     length 2.18445   
     axis 0 0 0   XYZ
    dof rx ry rz
    limits (-20.0 45.0)
           (-30.0 30.0)
           (-30.0 30.0)
  end
  begin
     id 13 
     name thorax
     direction 0.0519376 0.997415 0.0496558   
     length 2.21487   
     axis 0 0 0   XYZ
    dof rx ry rz
    limits (-20.0 45.0)
           (-30.0 30.0)
           (-30.0 30.0)
  end
  begin
     id 14 
     name lowerneck
     direction -0.0921276 0.983211 0.157506   
     length 1.61201   
     axis 0 0 0   XYZ
    dof rx ry rz
    limits (-20.0 45.0)
           (-30.0 30.0)
           (-30.0 30.0)
  end
  begin
     id 15 
     name upperneck
     direction 0.0820814 0.98162 -0.172292   
     length 1.65275   
     axis 0 0 0   XYZ
    dof rx ry rz
    limits (-20.0 45.0)
           (-30.0 30.0)
           (-30.0 30.0)
  end
  begin
     id 16
     name head
     direction 0.0336554 0.996413 -0.0776455  
     length 1.66415  
     axis 0 0 0   XYZ
    dof rx ry rz
    limits (-20.0 45.0)
           (-30.0 30.0)
           (-30.0 30.0)
  end
  begin
     id 17 
     name lclavicle
     direction 0.94696 0.284418 -0.149576  
     length 3.41447  
     axis 0 0 0   XYZ
    dof ry rz
    limits (-20.0 10.0)
           (0.0 20.0)
  end
  begin
     id 18 
     name lhumerus
     direction 1 -0.000130264 -9.81312e-005   
     length 5.19964   
     axis 180 -30 -90   XYZ
    dof rx ry rz
    limits (-60.0 90.0)
           (-90.0 90.0)
           (-90.0 90.0)
  end
  begin
     id 19
     name lradius
     direction 1 -4.48961e-011 1.43854e-026   
     length 3.32189   
     axis 180 -30 -90   XYZ
    dof rx
    limits (-10.0 170.0)
  end
  begin
     id 20
     name lwrist
     direction 1 -4.48958e-011 3.1502e-026   
     length 1.66095   
     axis -1.97692e-014 90 90   XYZ
    dof ry
    limits (-180.0 0.0)
 end
  begin
     id 21 
     name lhand
     direction 1 -4.48927e-011 6.3004e-026   
     length 0.645616   
     axis -4.02019e-014 90 90   XYZ
    dof rx rz
    limits (-90.0 90.0)
           (-45.0 45.0)
  end
  begin
     id 22 
     name lfingers
     direction 1 -4.4904e-011 1.26008e-025   
     length 0.520512   
     axis -8.04039e-014 90 90   XYZ
    dof rx
    limits (0.0 90.0)
  end
  begin
     id 23
     name lthumb
     direction 0.707107 -6.34947e-011 0.707107   
     length 0.747354   
     axis -90 45 2.85299e-015   XYZ
    dof rx rz
    limits (-45.0 45.0)
           (-45.0 45.0)
  end
  begin
     id 24 
     name rclavicle
     direction -0.909391 0.383475 -0.161107   
     length 3.25176  
     axis 0 0 0   XYZ 
    dof ry rz
    limits (-10.0 20.0)
           (-20.0 0.0)
  end
  begin
     id 25 
     name rhumerus
     direction -1 -4.48965e-011 -1.81384e-027  
     length 5.6595   
     axis 180 30 90   XYZ
    dof rx ry rz
    limits (-90.0 60.0)
           (-90.0 90.0)
           (-90.0 90.0)
  end
  begin
     id 26 
     name rradius
     direction -1 -4.48996e-011 -8.09397e-027   
     length 3.37604   
     axis 180 30 90   XYZ
    dof rx
    limits (-10.0 170.0)
  end
  begin
     id 27 
     name rwrist
     direction -1 -4.48927e-011 -1.56669e-026   
     length 1.68802   
     axis 1.21142e-014 -90 -90   XYZ
    dof ry
    limits (-180.0 0.0)
  end
  begin
     id 28
     name rhand
     direction -1 -4.48912e-011 -3.13339e-026   
     length 0.824702   
     axis 1.99937e-014 -90 -90   XYZ
    dof rx rz
    limits (-90.0 90.0)
           (-45.0 45.0)
  end
  begin
     id 29
     name rfingers
     direction -1 -4.49011e-011 -6.26677e-026   
     length 0.664896   
     axis 3.99874e-014 -90 -90   XYZ
    dof rx
    limits (0.0 90.0)
  end
  begin
     id 30
     name rthumb
     direction -0.707107 -6.34931e-011 0.707107   
     length 0.954662   
     axis -90 -45 -2.85299e-015   XYZ
    dof rx rz
    limits (-45.0 45.0)
           (-45.0 45.0)
  end
:hierarchy
  begin
    root lhipjoint rhipjoint lowerback
    lhipjoint lfemur
    lfemur ltibia
    ltibia lfoot
    lfoot ltoes
    rhipjoint rfemur
    rfemur rtibia
    rtibia rfoot
    rfoot rtoes
    lowerback upperback
    upperback thorax
    thorax lowerneck lclavicle rclavicle
    lowerneck upperneck
    upperneck head
    lclavicle lhumerus
    lhumerus lradius
    lradius lwrist
    lwrist lhand lthumb
    lhand lfingers
    rclavicle rhumerus
    rhumerus rradius
    rradius rwrist
    rwrist rhand rthumb
    rhand rfingers
  end

#!OML:ASF F:\VICON\USERDATA\INSTALL\rory3\rory3.ASF
:FULLY-SPECIFIED
:DEGREES
37
root 10.3842 17.7589 -18.1363 7.60271 -37.7472 -8.37237
lowerback 3.92632 -0.293112 -1.47925
upperback -2.22393 -0.319816 4.46311
thorax -4.4804 -0.0521292 5.51266
lowerneck -10.7637 -8.85953 -17.7236
upperneck 16.6796 -11.778 13.9843
head 8.89287 -5.57057 6.27284
rclavicle 6.09446e-014 4.57205e-014
rhumerus -38.4721 -19.2881 -69.3326
rradius 35.2234
rwrist -16.5609
rhand -10.6567 16.5759
rfingers 7.12502
rthumb 15.3512 -12.8342
lclavicle 6.09446e-014 4.57205e-014
lhumerus -34.1805 22.357 75.9007
lradius 25.5904
lwrist -10.833
lhand -1.6163 31.1635
lfingers 7.12502
lthumb 24.0414 59.6776
rfemur -14.3744 4.93737 23.5499
rtibia 37.5067
rfoot -20.2443 -10.189
rtoes 12.0683
lfemur -12.1134 1.396 -16.0679
ltibia 37.7766
lfoot -24.7442 9.35471
ltoes 5.17753
38
root 10.381 17.7586 -18.1372 7.75288 -37.8134 -8.58586
lowerback 3.84012 -0.1922 -1.22977
upperback -2.24773 -0.170211 4.48032
thorax -4.47224 0.0149889 5.37581
lowerneck -10.4823 -8.89677 -17.9122
upperneck 16.5753 -11.847 14.0476
head 8.8351 -5.62101 6.32262
rclavicle -1.10304e-013 4.29375e-014
rhumerus -38.6687 -19.5368 -69.0555
rradius 35.0803
rwrist -16.3913
rhand -10.286 16.8811
rfingers 7.12502
rthumb 15.7082 -12.5014
lclavicle -1.10304e-013 4.29375e-014
lhumerus -34.181 22.125 76.0448
lradius 25.649
lwrist -10.8107
lhand -1.23864 31.4691
lfingers 7.12502
lthumb 24.4035 59.9351
rfemur -14.3873 5.07312 23.7392
rtibia 37.4969
rfoot -20.1853 -10.2422
rtoes 11.6873
lfemur -12.141 1.37001 -15.8886
ltibia 37.8092
lfoot -24.7478 9.46091
ltoes 5.23245
39
root 10.3773 17.7573 -18.1368 7.82678 -37.9087 -8.64011
lowerback 3.68127 -0.111864 -1.12024
upperback -2.19778 -0.0606804 4.45343
thorax -4.34065 0.0627898 5.27331
lowerneck -10.4284 -8.92836 -18.021
upperneck 16.5192 -11.8959 14.1489
head 8.82926 -5.6445 6.37009
rclavicle -4.86401e-014 1.72943e-014
rhumerus -38.7037 -19.7281 -68.9618
rradius 34.9558
rwrist -16.3091
rhand -10.1429 17.0437
rfingers 7.12502
rthumb 15.8461 -12.3278
lclavicle -4.86401e-014 1.72943e-014
lhumerus -34.1042 22.0321 76.1426
lradius 25.8524
lwrist -10.763
lhand -0.80735 31.8483
lfingers 7.12502
lthumb 24.8169 60.2579
rfemur -14.4247 5.15779 23.782
rtibia 37.5024
rfoot -20.1262 -10.2914
rtoes 11.3688
lfemur -12.1543 1.40375 -15.8596
ltibia 37.8103
lfoot -24.7503 9.6185
ltoes 4.96996
40
root 10.3748 17.7564 -18.1345 7.67953 -37.9367 -8.41541
lowerback 3.571 -0.0774032 -1.23455
upperback -2.09164 -0.0276203 4.34761
thorax -4.17025 0.0770915 5.22108
lowerneck -10.5503 -8.97983 -17.7666
upperneck 16.3769 -11.9407 13.9854
head 8.78366 -5.65593 6.25574
rclavicle -7.8068e-014 2.22639e-014
rhumerus -38.5877 -19.7737 -69.0899
rradius 34.849
rwrist -16.6194
rhand -10.0958 17.0631
rfingers 7.12502
rthumb 15.8914 -12.3049
lclavicle -7.8068e-014 2.22639e-014
lhumerus -33.8539 21.8915 76.2542
lradius 25.9368
lwrist -10.5944
lhand -0.529597 32.135
lfingers 7.12502
lthumb 25.083 60.5077
rfemur -14.4206 5.15245 23.587
rtibia 37.5247
rfoot -20.1502 -10.319
rtoes 11.2942
lfemur -12.0952 1.38356 -16.0739
ltibia 37.7649
lfoot -24.7528 9.69882
ltoes 5.13789
41
root 10.3733 17.7564 -18.1292 7.44389 -37.8355 -8.15538
lowerback 3.50194 -0.12175 -1.34146
upperback -1.95892 -0.0995608 4.23662
thorax -3.98522 0.0379173 5.16684
lowerneck -10.8123 -9.00154 -17.4452
upperneck 16.3677 -11.9378 13.7745
head 8.79223 -5.63985 6.11925
rclavicle -4.85702e-016 3.81667e-014
rhumerus -38.377 -20.029 -69.1756
rradius 34.6052
rwrist -16.5798
rhand -9.96364 17.1103
rfingers 7.12502
rthumb 16.0187 -12.2475
lclavicle -4.85702e-016 3.81667e-014
lhumerus -33.5872 21.7423 76.3609
lradius 25.9131
lwrist -10.3589
lhand -0.575043 32.2334
lfingers 7.12502
lthumb 25.0395 60.6121
rfemur -14.3264 5.03013 23.3677
rtibia 37.56
rfoot -20.2062 -10.3019
rtoes 11.1938
lfemur -11.9579 1.17401 -16.3138
ltibia 37.6866
lfoot -24.7804 9.75095
ltoes 5.38842
42
root 10.3686 17.7568 -18.1241 7.38861 -37.7679 -8.11273
lowerback 3.29385 -0.173121 -1.28514
upperback -1.7655 -0.174626 4.15274
thorax -3.65841 -0.0104483 5.04546
lowerneck -11.3976 -9.0049 -17.1578
upperneck 16.6621 -11.9142 13.7006
head 8.97064 -5.59328 6.03603
rclavicle -2.67016e-014 1.66979e-014
rhumerus -38.0488 -20.4855 -69.2835
rradius 34.2912
rwrist -16.1556
rhand -9.75589 17.1679
rfingers 7.12502
rthumb 16.2187 -12.1736
lclavicle -2.67016e-014 1.66979e-014
lhumerus -33.2471 21.6543 76.4193
lradius 25.9397
lwrist -10.2095
lhand -0.580607 32.5092
lfingers 7.12502
lthumb 25.0341 60.8887
rfemur -14.2631 5.01538 23.3436
rtibia 37.5893
rfoot -20.2371 -10.3309
rtoes 10.8577
lfemur -11.8626 1.01481 -16.3547
ltibia 37.6088
lfoot -24.8116 9.81095
ltoes 4.85063
43
root 10.3636 17.7561 -18.1186 7.34767 -37.8266 -8.04405
lowerback 3.17914 -0.153965 -1.33952
upperback -1.7048 -0.154358 4.13875
thorax -3.53237 -0.00212266 5.05821
lowerneck -11.753 -9.0201 -17.075
upperneck 16.9168 -11.9016 13.6152
head 9.10908 -5.57499 5.987
rclavicle -4.40122e-014 1.8487e-014
rhumerus -37.9906 -20.7157 -69.1715
rradius 34.042
rwrist -15.8147
rhand -9.71323 17.1282
rfingers 7.12502
rthumb 16.2598 -12.2101
lclavicle -4.40122e-014 1.8487e-014
lhumerus -33.2274 21.6042 76.5127
lradius 26.1048
lwrist -10.1924
lhand -0.636513 32.8338
lfingers 7.12502
lthumb 24.9806 61.2208
rfemur -14.2389 5.10569 23.2787
rtibia 37.603
rfoot -20.2557 -10.364
rtoes 10.5689
lfemur -11.7892 0.96303 -16.4417
ltibia 37.5583
lfoot -24.8065 9.96084
ltoes 4.41506
44
root 10.3617 17.7539 -18.1152 7.31857 -37.8747 -7.99733
lowerback 3.21345 -0.110236 -1.3972
upperback -1.77256 -0.0953694 4.18349
thorax -3.62816 0.0318995 5.13608
lowerneck -11.7036 -9.01125 -17.1878
upperneck 16.9841 -11.8825 13.6141
head 9.12713 -5.5757 6.01076
rclavicle -4.37885e-014 6.16232e-015
rhumerus -38.1692 -20.6229 -68.9397
rradius 33.8972
rwrist -15.8247
rhand -9.88414 17.0781
rfingers 7.12502
rthumb 16.0952 -12.2735
lclavicle -4.37885e-014 6.16232e-015
lhumerus -33.4055 21.4625 76.6856
lradius 26.1431
lwrist -10.1974
lhand -0.940936 32.7206
lfingers 7.12502
lthumb 24.6888 61.1478
rfemur -14.2304 5.15051 23.2265
rtibia 37.6085
rfoot -20.2914 -10.3456
rtoes 10.9307
lfemur -11.7468 0.868992 -16.5174
ltibia 37.536
lfoot -24.7411 10.2061
ltoes 4.19026
